<svg width="120" height="120" viewBox="0 0 120 120" xmlns="http://www.w3.org/2000/svg">
  <!-- Fence posts -->
  <rect x="20" y="35" width="16" height="70" rx="2" fill="#5D4037"/>
  <rect x="52" y="35" width="16" height="70" rx="2" fill="#5D4037"/>
  <rect x="84" y="35" width="16" height="70" rx="2" fill="#5D4037"/>
  
  <!-- Horizontal fence rails -->
  <rect x="16" y="48" width="88" height="5" rx="1" fill="#6D4C41"/>
  <rect x="16" y="82" width="88" height="5" rx="1" fill="#6D4C41"/>
  
  <!-- Leaf -->
  <g transform="translate(60, 20)">
    <!-- Leaf shape -->
    <path d="M 0,-12 Q -8,-8 -10,0 Q -8,8 0,12 Q 8,8 10,0 Q 8,-8 0,-12 Z" 
          fill="#4CAF50"/>
    <!-- Leaf vein -->
    <line x1="0" y1="-12" x2="0" y2="12" stroke="#2E7D32" stroke-width="1.5"/>
    <!-- Small side veins -->
    <line x1="0" y1="-4" x2="-5" y2="0" stroke="#2E7D32" stroke-width="1" opacity="0.7"/>
    <line x1="0" y1="-4" x2="5" y2="0" stroke="#2E7D32" stroke-width="1" opacity="0.7"/>
    <line x1="0" y1="4" x2="-5" y2="7" stroke="#2E7D32" stroke-width="1" opacity="0.7"/>
    <line x1="0" y1="4" x2="5" y2="7" stroke="#2E7D32" stroke-width="1" opacity="0.7"/>
  </g>
</svg>
